# xmcd CD database file
#
# Track frame offsets:
#	150
#	24425
#	46140
#	74667
#	108260
#	131407
#	148297
#	173052
#	195052
#
# Disc length: 2931 seconds
#
# Revision: 0
# Processed by: cddbd v1.4PL0 Copyright (c) Steve Scherf et al.
# Submitted via: CDex 1.50Beta7
#
DISCID=760b7109
DTITLE=Bo-Göran Sahlin (guitars), Thomas Grün (drums, percussion), Håkan Andersson (accordeon), Jacob Karlzon (keyb.), Niklas Fredin (trumpet, flüegelhorn, voc.), Patrik Albin (e- and a-bass) - Jazz Attitude - North Pantry Sketches
DYEAR=1994
DGENRE=Jazz
TTITLE0=Why Lontano
TTITLE1=Gospel On My Mind
TTITLE2=Fat Passage
TTITLE3=Deliuism
TTITLE4=Toots
TTITLE5=Etaube
TTITLE6=Zawinola
TTITLE7=A Shorter Story
TTITLE8=Zepology
EXTD=YEAR: 1994
EXTT0=
EXTT1=
EXTT2=
EXTT3=
EXTT4=
EXTT5=
EXTT6=
EXTT7=
EXTT8=
PLAYORDER=
